<?xml version="1.0" encoding="utf-8"?>
<!-- Generator: Adobe Illustrator 25.4.1, SVG Export Plug-In . SVG Version: 6.00 Build 0)  -->
<svg version="1.1" id="Layer_1" xmlns="http://www.w3.org/2000/svg" xmlns:xlink="http://www.w3.org/1999/xlink" x="0px" y="0px"
	 viewBox="0 0 1799.2 805.5" style="enable-background:new 0 0 1799.2 805.5;" xml:space="preserve">
<g>
	<path d="M1692.1,799.2h44.8V422.7h-44.8V799.2z M1480.1,765.9c-27.4,0-52.7-10.5-52.7-40.1c0-33.2,25.3-43.8,54.8-49
		c30.1-5.3,63.8-5.8,81.2-18.5v45.9C1563.5,729,1539.2,765.9,1480.1,765.9 M1470.1,805.5c38,0,71.2-13.2,96-42.2v35.9h74.9v-39.5
		h-32.7V595.1c0-63.8-53.3-74.9-102.3-74.9c-60.6,0-112.8,23.7-115.5,91.2h44.8c2.1-40.1,30.1-51.7,68-51.7
		c28.5,0,60.6,6.3,60.6,45.4c0,33.7-42.2,30.6-91.8,40.1c-46.4,9-92.3,22.1-92.3,83.8C1380,783.3,1420.6,805.5,1470.1,805.5
		 M1253.9,799.2l99.7-272.6h-46.9l-74.4,227.3h-1.1l-76.5-227.3h-50.1l101.2,272.6H1253.9z M1017.7,799.2h44.8V526.5h-44.8V799.2z
		 M1082.6,441.1h-84.9v43.8h84.9V441.1z M910.1,526.5v-81.7l-44.8,15.3v66.4h-46.4v39.5h46.4v233.1h99.1v-39.5h-54.3V566.1h54.3
		v-39.5H910.1z M611.7,713.2h-44.8c2.6,67.5,54.3,92.3,115.5,92.3c55.4,0,116-21.1,116-86c0-52.7-44.3-67.5-89.1-77.5
		c-41.7-10-89.1-15.3-89.1-47.5c0-27.4,31.1-34.8,58-34.8c29.5,0,60.1,11.1,63.3,45.9h44.8c-3.7-66.4-51.7-85.4-111.8-85.4
		c-47.5,0-101.8,22.7-101.8,77.5c0,52.2,44.8,67,89.1,77c44.8,10,89.1,15.8,89.1,50.6c0,34.3-38,40.6-65.9,40.6
		C648.1,765.9,613.3,753.3,611.7,713.2 M333.8,636.8c3.2-41.7,31.1-77,78-77c44.3,0,76.5,34.3,78.6,77H333.8z M417.1,805.5
		c61.2,0,104.4-32.7,116.5-92.8h-44.3c-7.9,35.3-33.8,53.3-70.7,53.3c-59.6,0-86.5-42.2-84.9-89.6h204.1
		c2.6-65.9-26.9-156.1-123.4-156.1c-74.4,0-128.1,60.1-128.1,141.8C289,745.4,330.1,805.5,417.1,805.5 M5.8,422.7v376.5h50.1V626.7
		h173v-42.2h-173V464.8h197.2v-42.2H5.8z"/>
	<path d="M1799.2,110.7H1641v272.6h44.8V152.9h113.4V110.7z M1431.6,350.1c-27.4,0-52.7-10.5-52.7-40.1c0-33.2,25.3-43.8,54.8-49
		c30.1-5.3,63.8-5.8,81.2-18.5v45.9C1514.9,313.2,1490.7,350.1,1431.6,350.1 M1421.6,389.7c38,0,71.2-13.2,96-42.2v35.9h74.9v-39.5
		h-32.7V179.3c0-63.8-53.3-74.9-102.3-74.9c-60.6,0-112.8,23.7-115.5,91.2h44.8c2.1-40.1,30.1-51.7,68-51.7
		c28.5,0,60.6,6.3,60.6,45.3c0,33.7-42.2,30.6-91.8,40.1c-46.4,9-92.3,22.1-92.3,83.8C1331.4,367.5,1372,389.7,1421.6,389.7
		 M1164.3,350.1c-61.7,0-85.9-49.6-85.9-103.4c0-51.1,23.2-102.8,83.3-102.8c58,0,84.4,49.6,84.4,100.7
		C1246,297.9,1225.5,350.1,1164.3,350.1 M1169,389.7c83.3,0,124.4-64.9,124.4-141.8s-41.7-143.4-125.5-143.4
		c-37.4,0-72.2,13.2-87,43.2h-1.1V6.9h-44.8v376.5h44.8V347h1.1C1101,379.1,1141.1,389.7,1169,389.7 M919.1,383.4h44.8V6.9h-44.8
		V383.4z M646.5,247.3c0-66.4,38-103.4,84.9-103.4c46.9,0,84.9,36.9,84.9,103.4c0,65.9-38,102.8-84.9,102.8
		C684.4,350.1,646.5,313.2,646.5,247.3 M599,247.3c0,79.6,45.9,142.4,132.4,142.4s132.4-62.8,132.4-142.4
		c0-80.2-45.9-142.9-132.4-142.9S599,167.2,599,247.3 M343.8,247.3c0-66.4,38-103.4,84.9-103.4s84.9,36.9,84.9,103.4
		c0,65.9-38,102.8-84.9,102.8S343.8,313.2,343.8,247.3 M296.3,247.3c0,79.6,45.9,142.4,132.4,142.4c86.5,0,132.4-62.8,132.4-142.4
		c0-80.2-45.9-142.9-132.4-142.9C342.2,104.4,296.3,167.2,296.3,247.3 M129.2,245.7c-61.7,0-86-49.6-86-103.4
		c0-51.1,23.2-102.8,83.3-102.8c58,0,84.4,49.6,84.4,100.7C210.9,193.5,190.4,245.7,129.2,245.7 M0,383.4h44.8V242.6h1.1
		c20,32.2,60.1,42.7,88.1,42.7c83.3,0,124.4-64.9,124.4-141.8S216.7,0,132.9,0c-37.4,0-72.2,13.2-87,43.2h-1.1V6.3H0V383.4z"/>
</g>
</svg>
