<svg id="Ebene_1" data-name="Ebene 1" xmlns="http://www.w3.org/2000/svg" viewBox="0 0 512 512"><defs><style>.cls-1{fill:lime;}</style></defs><rect class="cls-1" width="512" height="512"/><path d="M51.4,228c0-24.8-.8-44.8-1.6-63.2H81.4L83,198h.8c14.4-23.6,37.2-37.6,68.8-37.6,46.8,0,82,39.6,82,98.4,0,69.6-42.4,104-88,104-25.6,0-48-11.2-59.6-30.4h-.8V437.6H51.4Zm34.8,51.6A79.26,79.26,0,0,0,87.8,294c6.4,24.4,27.6,41.2,52.8,41.2,37.2,0,58.8-30.4,58.8-74.8,0-38.8-20.4-72-57.6-72-24,0-46.4,17.2-53.2,43.6a57.09,57.09,0,0,0-2.4,14.4Z" transform="translate(0)"/><path d="M277.4,358.4c.8-13.2,1.6-32.8,1.6-50V74.4h34.8V196h.8c12.4-21.6,34.8-35.6,66-35.6,48,0,82,40,81.6,98.8,0,69.2-43.6,103.6-86.8,103.6-28,0-50.4-10.8-64.8-36.4h-1.2l-1.6,32Zm36.4-77.6a65.9,65.9,0,0,0,1.6,12.8c6.8,24.4,27.2,41.2,52.8,41.2,36.8,0,58.8-30,58.8-74.4,0-38.8-20-72-57.6-72-24,0-46.4,16.4-53.6,43.2-.8,4-2,8.8-2,14.4v34.8Z" transform="translate(0)"/></svg>